# xmcd
#
# Track frame offsets: 
#        150
#        39238
#        57362
#        62980
#        74397
#        79466
#        98863
#        120602
#        129408
#        150799
#        168529
#        188995
#        200858
#        216729
#        220299
#        234366
#
# Disc length: 3168 seconds
#
# Revision: 0
# Processed by: cddbd v1.5.2PL0 Copyright (c) Steve Scherf et al.
# Submitted via: ExactAudioCopy v0.95b3
#
DISCID=f20c5e10
DTITLE=John Lennon  - Remember New York City [CD1]  FLAC
DYEAR=1900
DGENRE=
TTITLE0=New York City
TTITLE1=New York City
TTITLE2=New York City
TTITLE3=New York City
TTITLE4=New York City
TTITLE5=New York City
TTITLE6=New York City
TTITLE7=New York City
TTITLE8=New York City
TTITLE9=New York City
TTITLE10=New York City
TTITLE11=New York City
TTITLE12=New York City
TTITLE13=New York City
TTITLE14=New York City
TTITLE15=Let's Ride
EXTD=
EXTT0=
EXTT1=
EXTT2=
EXTT3=
EXTT4=
EXTT5=
EXTT6=
EXTT7=
EXTT8=
EXTT9=
EXTT10=
EXTT11=
EXTT12=
EXTT13=
EXTT14=
EXTT15=
PLAYORDER=
